<?xml version="1.0" encoding="UTF-8" standalone="no"?>
<svg
                            xmlns="http://www.w3.org/2000/svg"
                            viewBox="0 0 77.78 74.93"
                          >
                            <defs></defs>
                            <g id="Layer_2" data-name="Layer 2">
                              <g id="Layer_1-2" data-name="Layer 1">
                                <path
                                  class="cls-1"
                                  fill="#fff"
                                  d="M4.94,17.6c-6.89,9.9-6,22.77-.77,33.29l.39.75.24.47c0,.1.11.19.16.28l.27.49.5.86c.1.15.19.31.29.47s.38.61.58.91c.08.13.16.26.25.38.27.41.55.82.84,1.22l0,0a2.43,2.43,0,0,0,.14.2l.77,1,.29.37.71.87.27.33,1,1.13,0,0,0,0c.33.36.67.71,1,1.06l.32.33.8.78.33.32c.36.34.73.67,1.1,1h0l.19.17,1,.84.42.33.83.65.45.34.93.68.34.24.1.06.91.61.39.26c.47.29.94.59,1.42.87l.4.22,1.06.6.6.3.76.4.18.09.31.15L26,71.6l.26.11c.46.21.93.4,1.41.59l.34.14,1.34.49.16.06c.5.17,1,.33,1.49.48l.36.11a13.93,13.93,0,0,0,1.53.43c33.31,6.08,43-20,43-20C67.78,64.59,53.36,67.38,39.69,64.27c-.52-.12-1-.28-1.52-.43l-.38-.11q-.75-.23-1.47-.48l-.2-.07-1.3-.48-.36-.15c-.47-.18-.94-.38-1.4-.58l-.28-.12L31.6,61.3l-.34-.16c-.31-.15-.61-.31-.91-.47s-.41-.2-.61-.32c-.37-.19-.73-.4-1.09-.61l-.37-.2c-.48-.29-1-.58-1.43-.88l-.38-.25-1-.68-.33-.23-1-.69-.42-.32-.87-.67-.38-.31-1.08-.91-.12-.1-1.13-1-.32-.3-.81-.8-.32-.32c-.34-.35-.67-.7-1-1.06l-.05-.05c-.35-.37-.69-.76-1-1.15l-.26-.31-.73-.9-.27-.34-.84-1.12C7,36.78,4.25,22.5,10.31,10.78"
                                />
                                <path
                                  class="cls-1"
                                  fill="#fff"
                                  d="M26.32,9.26c-5,7.17-4.71,16.76-.83,24.34a33.42,33.42,0,0,0,2.2,3.68,17.68,17.68,0,0,0,2.57,3.2c.36.39.73.78,1.12,1.16.09.1.19.19.29.29.37.36.75.71,1.14,1.06l0,0h0c.43.38.88.74,1.33,1.1l.3.24c.46.35.92.69,1.4,1l0,0,.64.42.3.2c.34.22.68.43,1,.63l.15.09.91.51.33.17.64.33.09,0c.44.22.88.42,1.34.62l.29.12c.36.16.73.31,1.09.45l.47.17,1,.35.45.14a10.45,10.45,0,0,0,1.45.42c25.71,4.26,31.65-15.54,31.65-15.54C72.43,42.26,62.07,45.94,51,43.07c-.49-.13-1-.27-1.46-.42l-.44-.14c-.34-.12-.68-.23-1-.36L47.63,42l-1.09-.44-.3-.12c-.45-.2-.9-.41-1.34-.63l-.67-.34-.39-.2c-.29-.15-.57-.32-.85-.48l-.2-.11-1-.63-.31-.21-.66-.44c-.48-.33-.94-.67-1.39-1l-.32-.25a31,31,0,0,1-10.5-15A23.23,23.23,0,0,1,30.38,3.52"
                                />
                                <path
                                  class="cls-1"
                                  fill="#fff"
                                  d="M44.3,3a15,15,0,0,0-1.19,14.46A20.36,20.36,0,0,0,54.8,28.41l.64.22.28.09a7.3,7.3,0,0,0,.91.27c14.2,2.74,18.05-7.29,19.08-8.77-3.38,4.86-9,6-16,4.34-.55-.14-1.15-.33-1.68-.52a20.38,20.38,0,0,1-5.51-3C46.3,16.35,42.43,7.34,46.49,0"
                                />
                              </g>
                            </g>
                          </svg>