<?xml version="1.0" encoding="utf-8"?>
<!-- Generator: Adobe Illustrator 15.1.0, SVG Export Plug-In . SVG Version: 6.00 Build 0)  -->
<!DOCTYPE svg PUBLIC "-//W3C//DTD SVG 1.0//EN" "http://www.w3.org/TR/2001/REC-SVG-20010904/DTD/svg10.dtd">
<svg
                            xmlns="http://www.w3.org/2000/svg"
                            viewBox="0 0 75.6 75.6"
                          >
                            <defs></defs>
                            <g id="Layer_2" data-name="Layer 2">
                              <g id="Layer_1-2" data-name="Layer 1">
                                <path fill="#fff"
                                  class="cls-1"
                                  d="M5.37,37.8A32.43,32.43,0,0,0,23.65,67L8.18,24.6A32.3,32.3,0,0,0,5.37,37.8Z"
                                />
                                <path fill="#fff"
                                  class="cls-1"
                                  d="M59.69,36.16A17,17,0,0,0,57,27.22c-1.64-2.67-3.18-4.93-3.18-7.61a5.61,5.61,0,0,1,5.45-5.75l.42,0a32.41,32.41,0,0,0-49,6.1c.76,0,1.47,0,2.08,0,3.39,0,8.64-.41,8.64-.41a1.34,1.34,0,0,1,.21,2.67s-1.75.2-3.71.31L29.74,57.72l7.1-21.28L31.78,22.59c-1.74-.1-3.4-.3-3.4-.3a1.34,1.34,0,0,1,.21-2.68s5.35.42,8.54.42c3.39,0,8.64-.42,8.64-.42A1.34,1.34,0,0,1,46,22.29s-1.76.2-3.71.3L54,57.45l3.23-10.81C58.62,42.16,59.69,38.94,59.69,36.16Z"
                                />
                                <path fill="#fff"
                                  class="cls-1"
                                  d="M38.37,40.63,28.64,68.9a32.2,32.2,0,0,0,9.16,1.33,32.56,32.56,0,0,0,10.77-1.84,2.38,2.38,0,0,1-.23-.45Z"
                                />
                                <path fill="#fff"
                                  class="cls-1"
                                  d="M66.25,22.24a24.71,24.71,0,0,1,.22,3.33A30.44,30.44,0,0,1,64,37.19L54.1,65.83A32.44,32.44,0,0,0,66.25,22.24Z"
                                />
                                <path fill="#fff"
                                  class="cls-1"
                                  d="M37.8,0A37.8,37.8,0,1,0,75.6,37.8,37.85,37.85,0,0,0,37.8,0Zm0,73.86A36.07,36.07,0,1,1,73.86,37.8,36.11,36.11,0,0,1,37.8,73.86Z"
                                />
                              </g>
                            </g>
                          </svg>